<?xml version="1.0" standalone="no"?>
<!DOCTYPE svg PUBLIC "-//W3C//DTD SVG 20010904//EN"
 "http://www.w3.org/TR/2001/REC-SVG-20010904/DTD/svg10.dtd">
<svg version="1.0" xmlns="http://www.w3.org/2000/svg"
 width="225.000000pt" height="225.000000pt" viewBox="0 0 225.000000 225.000000"
 preserveAspectRatio="xMidYMid meet">

<g transform="translate(0.000000,225.000000) scale(0.100000,-0.100000)"
fill="#000000" stroke="none">
<path d="M470 2232 c-67 -37 -92 -121 -56 -190 46 -89 185 -94 237 -8 23 38
25 108 3 144 -38 64 -121 88 -184 54z"/>
<path d="M990 2172 c-25 -2 -49 -7 -54 -12 -9 -9 -17 -412 -7 -408 3 2 25 14
48 28 l43 25 0 138 0 137 495 0 495 0 -2 -352 -3 -353 -490 0 -490 0 -3 53
c-2 28 -5 52 -8 52 -3 0 -25 -11 -48 -25 l-42 -25 4 -62 c2 -35 9 -69 14 -75
15 -18 1128 -19 1146 -1 9 9 12 119 12 434 0 377 -2 423 -16 435 -13 11 -115
14 -533 14 -284 0 -536 -1 -561 -3z"/>
<path d="M271 1898 c-19 -13 -44 -36 -55 -51 -20 -27 -21 -43 -24 -317 -3
-288 -3 -288 19 -309 27 -25 56 -27 87 -5 21 14 22 22 22 153 0 192 11 411 22
411 4 0 8 -161 8 -359 l0 -358 48 -7 c26 -3 62 -15 80 -26 18 -11 35 -20 37
-20 3 0 5 61 5 135 0 113 2 135 15 135 13 0 15 -24 15 -160 0 -130 3 -165 16
-185 24 -36 30 -132 11 -177 -8 -20 -13 -39 -9 -42 11 -12 46 -6 93 16 l48 23
3 509 c2 396 6 510 16 514 9 3 12 -29 12 -138 0 -136 1 -142 25 -165 13 -14
33 -25 43 -25 17 0 98 46 234 133 80 51 95 89 52 132 -25 25 -63 17 -139 -29
l-72 -44 -6 84 c-5 95 -24 136 -77 172 -28 19 -45 22 -94 20 l-60 -3 -33 -84
c-37 -95 -48 -112 -38 -60 5 25 2 46 -8 65 -13 26 -13 33 -1 57 l15 27 -46 0
-46 0 15 -27 c12 -24 12 -31 -1 -57 -10 -19 -13 -43 -9 -70 6 -48 1 -39 -43
74 l-29 75 -59 3 c-48 2 -65 -1 -92 -20z"/>
<path d="M1219 1854 c-46 -36 -85 -69 -87 -73 -1 -4 9 -18 22 -30 l25 -23 85
67 c84 65 99 88 74 113 -20 20 -31 15 -119 -54z"/>
<path d="M300 962 c-72 -36 -100 -122 -64 -198 36 -75 151 -101 214 -48 40 35
60 74 60 122 0 72 -71 142 -145 142 -16 0 -46 -8 -65 -18z"/>
<path d="M1105 966 c-53 -24 -78 -60 -83 -120 -8 -101 54 -162 155 -154 57 5
92 28 119 80 60 116 -70 248 -191 194z"/>
<path d="M1836 970 c-112 -35 -130 -199 -29 -262 99 -60 223 7 223 122 0 103
-95 171 -194 140z"/>
<path d="M727 676 c-68 -25 -99 -69 -99 -142 0 -148 195 -199 272 -72 69 113
-48 259 -173 214z"/>
<path d="M1433 664 c-117 -58 -96 -238 32 -274 39 -11 51 -10 90 4 58 23 88
64 92 130 3 39 -1 59 -16 84 -42 66 -127 91 -198 56z"/>
<path d="M117 626 c-85 -31 -109 -76 -115 -218 l-5 -108 71 0 71 0 3 88 c2 69
6 87 18 87 12 0 16 -18 18 -87 l3 -88 97 0 97 0 27 34 c29 36 100 76 136 76
30 0 34 13 16 56 -16 38 -15 115 1 157 7 16 -6 17 -196 17 -146 -1 -215 -5
-242 -14z"/>
<path d="M980 629 c0 -5 5 -30 11 -55 11 -43 7 -76 -17 -139 -3 -8 12 -16 43
-24 26 -7 65 -23 85 -36 l37 -25 56 30 c32 17 70 30 86 30 l28 0 -16 37 c-15
38 -15 138 2 176 7 16 -4 17 -154 17 -106 0 -161 -4 -161 -11z"/>
<path d="M1715 623 c16 -42 17 -128 1 -167 -20 -49 -21 -46 10 -46 38 0 111
-39 145 -77 28 -32 30 -33 114 -33 l85 0 0 84 c0 52 4 88 11 92 20 12 29 -19
29 -98 l0 -78 71 0 72 0 -5 109 c-4 97 -7 114 -30 149 -46 69 -75 76 -307 80
-195 4 -204 3 -196 -15z"/>
<path d="M512 319 c-73 -36 -86 -66 -92 -202 l-5 -117 73 0 72 0 0 91 c0 68 3
90 13 87 8 -3 13 -33 15 -91 l3 -87 184 0 184 0 3 87 c2 58 7 88 16 91 9 3 12
-19 12 -87 l0 -91 145 0 145 0 0 91 c0 68 3 90 13 87 8 -3 13 -33 15 -91 l3
-87 189 0 190 0 0 90 c0 53 4 90 10 90 6 0 10 -37 10 -90 l0 -90 76 0 77 0 -5
109 c-4 97 -7 114 -30 149 -48 72 -71 77 -333 77 -195 0 -235 -2 -260 -17 -43
-23 -72 -58 -89 -103 -13 -34 -15 -36 -15 -14 -1 37 -40 90 -86 116 -38 22
-50 23 -265 23 -209 0 -228 -2 -268 -21z"/>
</g>
</svg>
